<svg width="21" height="19" viewBox="0 0 21 19" fill="none" xmlns="http://www.w3.org/2000/svg">
<path d="M19.0938 0.90625H1.90625C1.49185 0.90625 1.09442 1.07087 0.801396 1.3639C0.50837 1.65692 0.34375 2.05435 0.34375 2.46875V16.5312C0.34375 16.9457 0.50837 17.3431 0.801396 17.6361C1.09442 17.9291 1.49185 18.0938 1.90625 18.0938H19.0938C19.5082 18.0938 19.9056 17.9291 20.1986 17.6361C20.4916 17.3431 20.6562 16.9457 20.6562 16.5312V2.46875C20.6562 2.05435 20.4916 1.65692 20.1986 1.3639C19.9056 1.07087 19.5082 0.90625 19.0938 0.90625ZM1.90625 2.46875H5.8125V16.5312H1.90625V2.46875ZM19.0938 16.5312H7.375V2.46875H19.0938V16.5312Z" fill="black"/>
</svg>
