<svg width="8" height="13" viewBox="0 0 8 13" fill="none" xmlns="http://www.w3.org/2000/svg">
<path fill-rule="evenodd" clip-rule="evenodd" d="M0.616543 7.38334C0.382459 7.14897 0.250977 6.83126 0.250977 6.50001C0.250977 6.16876 0.382459 5.85105 0.616543 5.61667L5.32988 0.901675C5.56437 0.66729 5.88237 0.535658 6.21392 0.535736C6.37809 0.535775 6.54064 0.568148 6.69229 0.631007C6.84395 0.693867 6.98174 0.785981 7.09779 0.902092C7.21385 1.0182 7.3059 1.15603 7.36869 1.30772C7.43147 1.4594 7.46377 1.62197 7.46373 1.78614C7.46369 1.9503 7.43132 2.11285 7.36846 2.26451C7.3056 2.41616 7.21349 2.55395 7.09738 2.67001L3.26821 6.50001L7.09821 10.33C7.21765 10.4453 7.31294 10.5831 7.37853 10.7356C7.44411 10.8881 7.47867 11.0521 7.48019 11.2181C7.48171 11.384 7.45016 11.5487 7.38738 11.7023C7.3246 11.856 7.23185 11.9956 7.11454 12.113C6.99723 12.2304 6.85771 12.3233 6.70412 12.3862C6.55053 12.4491 6.38594 12.4808 6.21997 12.4795C6.054 12.4781 5.88996 12.4437 5.73742 12.3783C5.58488 12.3128 5.44691 12.2177 5.33154 12.0983L0.614877 7.38334H0.616543Z" fill="#666666"/>
</svg>
