<svg width="16" height="16" viewBox="0 0 16 16" fill="none" xmlns="http://www.w3.org/2000/svg">
<path d="M1.3335 13.0003C1.3335 12.1163 1.68469 11.2684 2.30981 10.6433C2.93493 10.0182 3.78277 9.66699 4.66683 9.66699H11.3335C12.2176 9.66699 13.0654 10.0182 13.6905 10.6433C14.3156 11.2684 14.6668 12.1163 14.6668 13.0003C14.6668 13.4424 14.4912 13.8663 14.1787 14.1788C13.8661 14.4914 13.4422 14.667 13.0002 14.667H3.00016C2.55814 14.667 2.13421 14.4914 1.82165 14.1788C1.50909 13.8663 1.3335 13.4424 1.3335 13.0003Z" stroke="#666666" stroke-linejoin="round"/>
<path d="M8 6.3335C9.38071 6.3335 10.5 5.21421 10.5 3.8335C10.5 2.45278 9.38071 1.3335 8 1.3335C6.61929 1.3335 5.5 2.45278 5.5 3.8335C5.5 5.21421 6.61929 6.3335 8 6.3335Z" stroke="#666666"/>
</svg>
