<svg width="8" height="13" viewBox="0 0 8 13" fill="none" xmlns="http://www.w3.org/2000/svg">
<path fill-rule="evenodd" clip-rule="evenodd" d="M7.38332 5.61666C7.61741 5.85104 7.74889 6.16875 7.74889 6.5C7.74889 6.83125 7.61741 7.14896 7.38332 7.38333L2.66999 12.0983C2.43549 12.3327 2.11749 12.4643 1.78594 12.4643C1.4544 12.4642 1.13646 12.3324 0.902072 12.0979C0.667687 11.8634 0.536055 11.5454 0.536133 11.2139C0.536211 10.8823 0.667993 10.5644 0.902489 10.33L4.73249 6.5L0.902489 2.67C0.674678 2.43435 0.548534 2.11866 0.551226 1.79091C0.553919 1.46316 0.685232 1.14958 0.916884 0.917711C1.14854 0.685841 1.46199 0.554232 1.78974 0.55123C2.11748 0.548229 2.4333 0.674075 2.66916 0.901664L7.38416 5.61583L7.38332 5.61666Z" fill="#666666"/>
</svg>
