<svg width="21" height="20" viewBox="0 0 21 20" fill="none" xmlns="http://www.w3.org/2000/svg">
<rect x="0.5" y="0.554688" width="19.6515" height="18.8906" rx="3.5" fill="white"/>
<rect x="0.5" y="0.554688" width="19.6515" height="18.8906" rx="3.5" stroke="#D9D9D9"/>
<path d="M16.532 14.4712L11.2061 4.58062C10.8286 3.87937 9.82295 3.87937 9.44513 4.58062L4.11951 14.4712C4.03754 14.6235 3.99645 14.7944 4.00024 14.9672C4.00403 15.1401 4.05257 15.309 4.14113 15.4575C4.22969 15.606 4.35523 15.729 4.50551 15.8145C4.65579 15.9 4.82567 15.9451 4.99857 15.9453H15.6514C15.8244 15.9453 15.9945 15.9005 16.145 15.8151C16.2955 15.7297 16.4212 15.6067 16.51 15.4582C16.5987 15.3096 16.6474 15.1406 16.6513 14.9676C16.6551 14.7946 16.614 14.6236 16.532 14.4712ZM10.3258 14.4141C10.2021 14.4141 10.0813 14.3774 9.97853 14.3087C9.87575 14.2401 9.79564 14.1424 9.74833 14.0282C9.70103 13.914 9.68865 13.7884 9.71277 13.6671C9.73688 13.5459 9.79641 13.4345 9.88382 13.3471C9.97123 13.2597 10.0826 13.2002 10.2038 13.1761C10.3251 13.152 10.4507 13.1643 10.5649 13.2116C10.6791 13.2589 10.7768 13.3391 10.8454 13.4418C10.9141 13.5446 10.9508 13.6654 10.9508 13.7891C10.9508 13.9548 10.8849 14.1138 10.7677 14.231C10.6505 14.3482 10.4915 14.4141 10.3258 14.4141ZM11.0045 8.12813L10.8251 11.9406C10.8251 12.0732 10.7725 12.2004 10.6787 12.2942C10.5849 12.3879 10.4577 12.4406 10.3251 12.4406C10.1925 12.4406 10.0653 12.3879 9.97158 12.2942C9.87781 12.2004 9.82513 12.0732 9.82513 11.9406L9.64576 8.12969C9.64173 8.03862 9.65607 7.94768 9.68794 7.86227C9.7198 7.77687 9.76854 7.69875 9.83124 7.63259C9.89393 7.56642 9.96931 7.51355 10.0529 7.47713C10.1364 7.44072 10.2265 7.4215 10.3176 7.42063H10.3242C10.416 7.42058 10.5068 7.43912 10.5912 7.47515C10.6756 7.51117 10.7518 7.56392 10.8153 7.63021C10.8788 7.6965 10.9281 7.77497 10.9604 7.86087C10.9927 7.94676 11.0073 8.03832 11.0033 8.13L11.0045 8.12813Z" fill="#FFC700"/>
</svg>
