<svg width="20" height="25" viewBox="0 0 20 25" fill="none" xmlns="http://www.w3.org/2000/svg">
<path d="M19.3187 24.6544H16.9038V22.3064C16.9038 20.3611 15.2822 18.7843 13.2816 18.7843H6.03709C4.03658 18.7843 2.41484 20.3611 2.41484 22.3064V24.6544H0V22.3064C0 19.0644 2.7029 16.4363 6.03709 16.4363H13.2816C16.6158 16.4363 19.3187 19.0644 19.3187 22.3064V24.6544ZM9.65934 14.0882C5.65831 14.0882 2.41484 10.9345 2.41484 7.04412C2.41484 3.15376 5.65831 0 9.65934 0C13.6604 0 16.9038 3.15376 16.9038 7.04412C16.9038 10.9345 13.6604 14.0882 9.65934 14.0882ZM9.65934 11.7402C12.3266 11.7402 14.489 9.63769 14.489 7.04412C14.489 4.45054 12.3266 2.34804 9.65934 2.34804C6.99199 2.34804 4.82967 4.45054 4.82967 7.04412C4.82967 9.63769 6.99199 11.7402 9.65934 11.7402Z" fill="#1C1C1C"/>
</svg>
