<svg width="11" height="11" viewBox="0 0 11 11" fill="none" xmlns="http://www.w3.org/2000/svg">
<path d="M6.82594 5.50016L10.5369 1.78922C10.713 1.61341 10.8121 1.37484 10.8123 1.12599C10.8125 0.877138 10.7139 0.638391 10.5381 0.462271C10.3622 0.28615 10.1237 0.187084 9.87482 0.186864C9.62597 0.186644 9.38722 0.285289 9.2111 0.461099L5.50016 4.17204L1.78922 0.461099C1.6131 0.284979 1.37423 0.186035 1.12516 0.186035C0.87609 0.186035 0.637219 0.284979 0.461099 0.461099C0.284979 0.637219 0.186035 0.87609 0.186035 1.12516C0.186035 1.37423 0.284979 1.6131 0.461099 1.78922L4.17204 5.50016L0.461099 9.2111C0.284979 9.38722 0.186035 9.62609 0.186035 9.87516C0.186035 10.1242 0.284979 10.3631 0.461099 10.5392C0.637219 10.7153 0.87609 10.8143 1.12516 10.8143C1.37423 10.8143 1.6131 10.7153 1.78922 10.5392L5.50016 6.82829L9.2111 10.5392C9.38722 10.7153 9.62609 10.8143 9.87516 10.8143C10.1242 10.8143 10.3631 10.7153 10.5392 10.5392C10.7153 10.3631 10.8143 10.1242 10.8143 9.87516C10.8143 9.62609 10.7153 9.38722 10.5392 9.2111L6.82594 5.50016Z" fill="#666666"/>
</svg>
