<svg width="24" height="24" viewBox="0 0 24 24" fill="none" xmlns="http://www.w3.org/2000/svg">
<path fill-rule="evenodd" clip-rule="evenodd" d="M11.2497 4.1665C10.1202 4.1666 9.00711 4.43681 8.00327 4.95458C6.99943 5.47236 6.13397 6.22268 5.47909 7.14297C4.82421 8.06325 4.3989 9.12679 4.23865 10.2449C4.0784 11.363 4.18785 12.5031 4.55787 13.5703C4.9279 14.6375 5.54776 15.6007 6.36575 16.3796C7.18375 17.1585 8.17614 17.7305 9.26015 18.0478C10.3442 18.3652 11.4883 18.4187 12.5972 18.2039C13.7061 17.9892 14.7476 17.5123 15.6347 16.8132L18.6781 19.8565C18.8352 20.0083 19.0457 20.0923 19.2642 20.0904C19.4827 20.0885 19.6917 20.0009 19.8462 19.8464C20.0007 19.6918 20.0884 19.4828 20.0903 19.2643C20.0922 19.0458 20.0082 18.8353 19.8564 18.6782L16.8131 15.6348C17.6364 14.5904 18.149 13.3352 18.2923 12.0129C18.4356 10.6907 18.2037 9.35485 17.6232 8.15825C17.0428 6.96164 16.1371 5.95263 15.01 5.2467C13.8828 4.54076 12.5797 4.16641 11.2497 4.1665ZM5.83306 11.2498C5.83306 9.81325 6.40374 8.4355 7.41956 7.41968C8.43538 6.40385 9.81313 5.83317 11.2497 5.83317C12.6863 5.83317 14.0641 6.40385 15.0799 7.41968C16.0957 8.4355 16.6664 9.81325 16.6664 11.2498C16.6664 12.6864 16.0957 14.0642 15.0799 15.08C14.0641 16.0958 12.6863 16.6665 11.2497 16.6665C9.81313 16.6665 8.43538 16.0958 7.41956 15.08C6.40374 14.0642 5.83306 12.6864 5.83306 11.2498Z" fill="white"/>
</svg>
