<svg width="20" height="21" viewBox="0 0 20 21" fill="none" xmlns="http://www.w3.org/2000/svg">
<path d="M17.7141 9.63484C18.1091 10.1515 18.1091 10.849 17.7141 11.3648C16.4699 12.989 13.4849 16.3332 9.99993 16.3332C6.51493 16.3332 3.52993 12.989 2.28576 11.3648C2.09358 11.1174 1.98926 10.8131 1.98926 10.4998C1.98926 10.1866 2.09358 9.88223 2.28576 9.63484C3.52993 8.01067 6.51493 4.6665 9.99993 4.6665C13.4849 4.6665 16.4699 8.01067 17.7141 9.63484Z" stroke="black" stroke-linecap="round" stroke-linejoin="round"/>
<path d="M10 13C11.3807 13 12.5 11.8807 12.5 10.5C12.5 9.11929 11.3807 8 10 8C8.61929 8 7.5 9.11929 7.5 10.5C7.5 11.8807 8.61929 13 10 13Z" stroke="black" stroke-linecap="round" stroke-linejoin="round"/>
</svg>
